<?xml version="1.0" encoding="UTF-8"?>
<svg width="25px" height="17px" viewBox="0 0 25 17" version="1.1" xmlns="http://www.w3.org/2000/svg" xmlns:xlink="http://www.w3.org/1999/xlink">
    <!-- Generator: Sketch 42 (36781) - http://www.bohemiancoding.com/sketch -->
    <title>cloud</title>
    <desc>Created with Sketch.</desc>
    <defs></defs>
    <g id="Page-1" stroke="none" stroke-width="1" fill="none" fill-rule="evenodd" stroke-linecap="round" stroke-linejoin="round">
        <g id="Outline" transform="translate(-400.000000, -254.000000)" stroke="#000000">
            <g id="cloud" transform="translate(400.000000, 254.000000)">
                <path d="M20,16.5 C22.485,16.5 24.5,14.485 24.5,12 C24.5,10.026 23.221,8.367 21.452,7.761 C21.481,7.511 21.5,7.258 21.5,7 C21.5,3.41 18.59,0.5 15,0.5 C12.166,0.5 9.762,2.317 8.873,4.847 C8.459,4.633 7.998,4.5 7.5,4.5 C5.843,4.5 4.5,5.843 4.5,7.5 C4.5,7.517 4.505,7.533 4.505,7.55 C2.256,7.799 0.5,9.684 0.5,12 C0.5,14.485 2.515,16.5 5,16.5 L20,16.5 Z" id="Stroke-47"></path>
            </g>
        </g>
    </g>
</svg>