<svg xmlns="http://www.w3.org/2000/svg" viewBox="0 0 44 44"><title>globes@1x</title><g id="Layer_2" data-name="Layer 2"><g id="Location"><g id="Globes_2x.png" data-name="Globes@2x.png"><path d="M26,0A18,18,0,0,0,11.77,7a19.93,19.93,0,0,1,4.7-.92c-.19-.14-.39-.28-.57-.44A16,16,0,0,1,20.46,3a15.14,15.14,0,0,0-1.91,3,20.2,20.2,0,0,1,2.09.17C21.82,4,23.32,2.57,25,2.15V7.28a20,20,0,0,1,2,.88v-6c2.09.53,3.92,2.66,5.18,5.76a16.8,16.8,0,0,1-3.94.93,20.2,20.2,0,0,1,2.32,1.61,17.73,17.73,0,0,0,2.27-.67,26.51,26.51,0,0,1,.82,3.81A20,20,0,0,1,36.72,19h5.23a15.87,15.87,0,0,1-4.16,9.74A19.88,19.88,0,0,1,37,32.23,18,18,0,0,0,26,0Zm5.54,3A16,16,0,0,1,36.1,5.64,12.19,12.19,0,0,1,33.95,7.1,16.22,16.22,0,0,0,31.54,3ZM36,17a29.4,29.4,0,0,0-1.32-8,14.25,14.25,0,0,0,2.91-2,15.89,15.89,0,0,1,4.4,10ZM18,8A18,18,0,1,0,36,26,18,18,0,0,0,18,8Zm-5.54,3a16.25,16.25,0,0,0-2.4,4.08A12.12,12.12,0,0,1,7.9,13.64,16,16,0,0,1,12.46,11Zm-6,4a14.25,14.25,0,0,0,2.91,2A29.41,29.41,0,0,0,8,25h-6A15.89,15.89,0,0,1,6.45,15ZM2.05,27H8a29.4,29.4,0,0,0,1.32,8,14.29,14.29,0,0,0-2.91,2A15.89,15.89,0,0,1,2.05,27ZM7.9,38.36a12.17,12.17,0,0,1,2.15-1.46A16.24,16.24,0,0,0,12.46,41,16,16,0,0,1,7.9,38.36ZM17,41.85c-2.09-.53-3.92-2.66-5.18-5.76A17.38,17.38,0,0,1,17,35ZM17,33a19.2,19.2,0,0,0-5.83,1.17A28.25,28.25,0,0,1,10,27h7ZM17,25H10a28.25,28.25,0,0,1,1.13-7.21A19.2,19.2,0,0,0,17,19Zm0-8a17.38,17.38,0,0,1-5.18-1c1.26-3.1,3.1-5.23,5.18-5.76ZM28.1,13.64a12.12,12.12,0,0,1-2.16,1.46A16.23,16.23,0,0,0,23.54,11,16,16,0,0,1,28.1,13.64ZM19,10.15c2.09.53,3.92,2.66,5.18,5.76A17.37,17.37,0,0,1,19,17ZM19,19a19.2,19.2,0,0,0,5.83-1.17A28.3,28.3,0,0,1,26,25H19ZM19,27h7a28.3,28.3,0,0,1-1.13,7.21A19.2,19.2,0,0,0,19,33Zm0,14.84V35a17.37,17.37,0,0,1,5.18,1C22.92,39.19,21.09,41.32,19,41.85ZM23.54,41a16.25,16.25,0,0,0,2.4-4.08,12.17,12.17,0,0,1,2.16,1.46A16,16,0,0,1,23.54,41Zm6-4a14.3,14.3,0,0,0-2.91-2A29.39,29.39,0,0,0,28,27h6A15.89,15.89,0,0,1,29.55,37ZM28,25a29.4,29.4,0,0,0-1.32-8,14.26,14.26,0,0,0,2.91-2,15.89,15.89,0,0,1,4.4,10Z"/></g></g></g></svg>