<svg xmlns="http://www.w3.org/2000/svg" viewBox="0 0 44 44"><title>servers@1x</title><g id="Layer_2" data-name="Layer 2"><g id="Electronics"><g id="Server_Connections_2x.png" data-name="Server Connections@2x.png"><path d="M6,30a1,1,0,0,0,1-1V22H21v7a1,1,0,0,0,2,0V22H37v7a1,1,0,0,0,2,0V21a1,1,0,0,0-1-1H23V15a1,1,0,0,0-2,0v5H6a1,1,0,0,0-1,1v8A1,1,0,0,0,6,30ZM20,12h4a4,4,0,0,0,4-4V4a4,4,0,0,0-4-4H20a4,4,0,0,0-4,4V8A4,4,0,0,0,20,12ZM18,4a2,2,0,0,1,2-2h4a2,2,0,0,1,2,2V8a2,2,0,0,1-2,2H20a2,2,0,0,1-2-2ZM40,32H36a4,4,0,0,0-4,4v4a4,4,0,0,0,4,4h4a4,4,0,0,0,4-4V36A4,4,0,0,0,40,32Zm2,8a2,2,0,0,1-2,2H36a2,2,0,0,1-2-2V36a2,2,0,0,1,2-2h4a2,2,0,0,1,2,2ZM24,32H20a4,4,0,0,0-4,4v4a4,4,0,0,0,4,4h4a4,4,0,0,0,4-4V36A4,4,0,0,0,24,32Zm2,8a2,2,0,0,1-2,2H20a2,2,0,0,1-2-2V36a2,2,0,0,1,2-2h4a2,2,0,0,1,2,2ZM8,32H4a4,4,0,0,0-4,4v4a4,4,0,0,0,4,4H8a4,4,0,0,0,4-4V36A4,4,0,0,0,8,32Zm2,8a2,2,0,0,1-2,2H4a2,2,0,0,1-2-2V36a2,2,0,0,1,2-2H8a2,2,0,0,1,2,2Z"/></g></g></g></svg>