<?xml version="1.0" encoding="UTF-8"?>
<svg width="25px" height="24px" viewBox="0 0 25 24" version="1.1" xmlns="http://www.w3.org/2000/svg" xmlns:xlink="http://www.w3.org/1999/xlink">
    <!-- Generator: Sketch 42 (36781) - http://www.bohemiancoding.com/sketch -->
    <title>warning</title>
    <desc>Created with Sketch.</desc>
    <defs></defs>
    <g id="Page-1" stroke="none" stroke-width="1" fill="none" fill-rule="evenodd">
        <g id="Outline" transform="translate(-200.000000, -451.000000)">
            <g id="warning" transform="translate(200.000000, 451.000000)">
                <path d="M0.6309,20.9443 L11.5689,1.0483 C11.9709,0.3173 13.0289,0.3173 13.4309,1.0483 L24.3689,20.9443 C24.7549,21.6453 24.2429,22.5003 23.4379,22.5003 L1.5619,22.5003 C0.7569,22.5003 0.2459,21.6453 0.6309,20.9443 Z" id="Stroke-23" stroke="#000000" stroke-linecap="round" stroke-linejoin="round"></path>
                <path d="M13.5,18.5 C13.5,19.053 13.052,19.5 12.5,19.5 C11.948,19.5 11.5,19.053 11.5,18.5 C11.5,17.947 11.948,17.5 12.5,17.5 C13.052,17.5 13.5,17.947 13.5,18.5" id="Fill-25" fill="#000000"></path>
                <path d="M13.5,18.5 C13.5,19.053 13.052,19.5 12.5,19.5 C11.948,19.5 11.5,19.053 11.5,18.5 C11.5,17.947 11.948,17.5 12.5,17.5 C13.052,17.5 13.5,17.947 13.5,18.5 Z" id="Stroke-27" stroke="#000000" stroke-linecap="round" stroke-linejoin="round"></path>
                <path d="M11.5137,9.6455 C11.4707,9.3885 11.5307,9.1305 11.6817,8.9175 C11.8367,8.7015 12.0687,8.5575 12.3347,8.5135 C12.3907,8.5045 12.4467,8.4995 12.5017,8.4995 C12.9927,8.4995 13.4067,8.8465 13.4867,9.3245 C13.5037,9.4285 13.5037,9.5405 13.4867,9.6465 L12.5007,15.4995 L11.5137,9.6455 Z" id="Fill-29" fill="#000000"></path>
                <path d="M12.502,8 C12.42,8 12.337,8.007 12.253,8.021 C11.436,8.155 10.884,8.92 11.021,9.729 L12.007,15.586 C12.041,15.789 12.202,15.958 12.418,15.993 C12.446,15.998 12.473,16 12.501,16 C12.741,16 12.953,15.828 12.993,15.586 L13.98,9.729 C14.005,9.573 14.007,9.405 13.98,9.241 C13.857,8.515 13.222,8 12.502,8 M12.502,9 C12.743,9 12.955,9.175 12.994,9.407 C13.002,9.456 13.002,9.514 12.994,9.562 L12.5,12.494 L12.006,9.562 C11.978,9.395 12.046,9.27 12.089,9.209 C12.166,9.101 12.282,9.029 12.416,9.007 C12.445,9.002 12.474,9 12.502,9" id="Fill-31" fill="#000000"></path>
            </g>
        </g>
    </g>
</svg>